<svg xmlns="http://www.w3.org/2000/svg" width="1890" height="1417" viewBox="0 0 1890 1417">
  <defs>
    <style>
      .cls-1 {
        fill: #010101;
        fill-rule: evenodd;
      }
    </style>
  </defs>
  <path id="Color_Fill_1" data-name="Color Fill 1" class="cls-1" d="M21.787,688.861c5.5,3.15,16.494,6.15,27.635,6.15,26.767,0,39.354-14.4,39.354-31.349,0-14.25-8.1-23.549-25.32-30.149-12.588-4.95-18.085-7.8-18.085-14.249,0-5.25,4.63-9.75,14.179-9.75a45.029,45.029,0,0,1,20.4,4.8l4.919-18.449c-5.787-2.7-13.89-5.1-24.886-5.1-23,0-36.894,13.2-36.894,30.449,0,14.7,10.562,24,26.767,29.848,11.719,4.35,16.349,7.95,16.349,14.25,0,6.6-5.353,10.949-15.481,10.949a54.7,54.7,0,0,1-24.452-6.3Zm81.893-96.446v101.1h22.137v-101.1H103.68Zm125.152,101.1h21.557l-5.353-101.1H216.244l-10.417,33.6c-3.183,11.25-6.511,24.6-9.26,36.3h-0.434c-2.17-11.85-5.209-24.449-8.247-36.149l-9.549-33.748H148.966l-6.221,101.1h20.4l1.736-38.4c0.724-12.6,1.158-28.2,1.737-41.848h0.289c2.315,13.2,5.643,27.6,8.826,39.448l10.417,39.149h17.217l11.864-39.449c3.762-11.849,7.813-26.249,10.852-39.148h0.434c0,14.7.434,29.4,0.868,41.548Zm38.489,0h21.847V657.362a53.592,53.592,0,0,0,7.524.45c13.021,0,24.162-3.3,31.686-10.65,5.787-5.7,8.97-14.1,8.97-24s-4.2-18.3-10.417-23.4c-6.511-5.4-16.2-8.1-29.805-8.1-13.456,0-23,.9-29.8,2.1v99.746Zm21.847-83.7a36.293,36.293,0,0,1,9.115-.9c11,0,17.218,5.55,17.218,14.849,0,10.35-7.234,16.5-18.954,16.5a32.545,32.545,0,0,1-7.379-.6V609.814Zm62.217,83.7H412.3v-19.2H373.521v-81.9H351.385v101.1Zm73.934-101.1v101.1h22.136v-101.1H425.319Zm41.235,101.1H488.69V652.862H523.7v-18.6H488.69v-23.1h37.473V592.415H466.554v101.1Zm120.812,0V651.362l32.12-58.947H594.745l-9.838,24.3c-2.894,7.2-5.209,13.049-7.379,19.349h-0.29c-2.459-6.6-4.485-12-7.523-19.349l-9.983-24.3H534.557l30.817,59.7v41.4h21.992Zm40.082-101.1v101.1h22.136v-101.1H627.448Zm61.49,101.1V663.062c0-16.5-.289-30.749-0.868-44.1l0.434-.15a381.591,381.591,0,0,0,16.928,35.7l20.835,39h23.149v-101.1H729.16v29.548a388.8,388.8,0,0,0,1.881,42.149h-0.434a297.984,297.984,0,0,0-15.915-34.649l-20.256-37.048H668.683v101.1h20.255Zm161.035-57.9H813.658v17.849h15.047v21.149c-1.737.9-5.788,1.5-10.852,1.5-18.085,0-30.672-12.3-30.672-33.148,0-21.9,13.889-32.7,32.264-32.7,10.707,0,17.362,1.95,22.715,4.35l4.63-18.3c-4.774-2.4-14.468-4.95-27.056-4.95-31.975,0-55.558,19.2-55.7,52.8-0.145,14.849,4.775,28.048,13.745,36.748,8.97,9,21.847,13.65,39.643,13.65a105.657,105.657,0,0,0,32.554-5.7V635.613Zm46.447,57.448a184.276,184.276,0,0,0,25.03,1.5c19.1,0,34.724-4.2,45-13.05,9.4-8.25,16.2-21.6,16.2-40.948,0-17.85-6.366-30.3-16.494-38.1-9.4-7.349-21.413-10.8-39.932-10.8a189.987,189.987,0,0,0-29.805,2.1v99.3Zm22.136-82.947a44.284,44.284,0,0,1,9.983-.9c18.954,0,30.818,11.1,30.673,32.1,0,24.149-13.021,35.548-32.987,35.4a39.169,39.169,0,0,1-7.669-.45V610.114Zm126.894,57.448,7.52,25.949h23.73l-30.24-101.1h-28.94l-29.8,101.1h22.86l6.94-25.949h27.93Zm-24.74-17.1,5.79-21.449c1.59-5.85,3.03-13.5,4.48-19.5h0.29c1.45,6,3.18,13.5,4.92,19.5l6.08,21.449h-21.56Zm75.82,43.049h22.13v-81.9h26.62v-19.2h-74.94v19.2h26.19v81.9Zm100.7-25.949,7.52,25.949h23.73l-30.24-101.1H1169.3l-29.8,101.1h22.86l6.94-25.949h27.93Zm-24.74-17.1,5.78-21.449c1.6-5.85,3.04-13.5,4.49-19.5h0.29c1.45,6,3.18,13.5,4.92,19.5l6.07,21.449h-21.55Zm166.53,22.349a53.347,53.347,0,0,1-18.37,3.3c-19.68,0-31.26-12.749-31.26-33,0-22.5,13.6-33.449,31.11-33.449a46.2,46.2,0,0,1,18.52,3.75l4.49-18.149c-3.91-2.1-12.59-4.5-24.02-4.5-29.52,0-53.25,19.2-53.25,53.7,0,28.8,17.37,50.548,51.08,50.548,11.86,0,20.98-2.25,25.03-4.35Zm69.88-5.249,7.53,25.949h23.72l-30.23-101.1h-28.94l-29.81,101.1h22.86l6.95-25.949h27.92Zm-24.74-17.1,5.79-21.449c1.59-5.85,3.04-13.5,4.48-19.5h0.29c1.45,6,3.19,13.5,4.92,19.5l6.08,21.449h-21.56Zm69.02,43.049h21.85V657.362a53.511,53.511,0,0,0,7.52.45c13.02,0,24.16-3.3,31.68-10.65,5.79-5.7,8.97-14.1,8.97-24s-4.19-18.3-10.41-23.4c-6.51-5.4-16.21-8.1-29.81-8.1-13.45,0-23,.9-29.8,2.1v99.746Zm21.85-83.7a36.263,36.263,0,0,1,9.11-.9c11,0,17.22,5.55,17.22,14.849,0,10.35-7.24,16.5-18.96,16.5a32.469,32.469,0,0,1-7.37-.6V609.814Zm81.02,83.7h22.14v-81.9h26.62v-19.2h-74.95v19.2h26.19v81.9Zm60.33-101.1v56.4c0,32.249,14.47,46.349,39.07,46.349,25.46,0,40.66-14.85,40.66-46.049v-56.7h-22v58.2c0,17.85-6.36,26.249-17.94,26.249-11.28,0-17.65-8.849-17.65-26.249v-58.2h-22.14Zm98.83,101.1h21.84V653.762h6.66c8.97,0.15,13.17,3.6,15.77,16.2,2.89,12.449,5.21,20.7,6.8,23.549h22.57c-1.88-3.9-4.92-17.1-7.96-28.5-2.46-9.3-6.22-16.05-13.02-18.9v-0.45a26.749,26.749,0,0,0,17.22-24.9c0-9.3-3.18-16.35-8.97-21.15-6.95-5.7-17.07-7.949-31.54-7.949a187.014,187.014,0,0,0-29.37,2.1v99.746Zm21.84-84.147a53.257,53.257,0,0,1,9.99-.75c10.12,0.15,16.2,4.8,16.2,14.1,0,8.85-6.51,14.55-17.51,14.55h-8.68v-27.9Zm121.97,22.8h-35.88v-21h38.05V592.415h-60.18v101.1h62.21v-18.75h-40.08v-24h35.88v-18.6Z"/>
</svg>

<svg 
 xmlns="http://www.w3.org/2000/svg"
 xmlns:xlink="http://www.w3.org/1999/xlink"
 width="1843px" height="106px">
<path fill-rule="evenodd"  fill="rgb(1, 1, 1)"
 d="M1842.219,84.761 L1842.219,103.511 L1780.005,103.511 L1780.005,2.415 L1840.193,2.415 L1840.193,21.164 L1802.142,21.164 L1802.142,42.163 L1838.023,42.163 L1838.023,60.762 L1802.142,60.762 L1802.142,84.761 L1842.219,84.761 ZM1759.893,75.012 C1762.931,86.411 1765.969,99.611 1767.850,103.511 L1745.280,103.511 C1743.688,100.661 1741.373,92.411 1738.480,79.962 C1735.875,67.362 1731.679,63.912 1722.709,63.762 L1716.054,63.762 L1716.054,103.511 L1694.206,103.511 L1694.206,3.765 C1701.296,2.565 1711.858,1.665 1723.577,1.665 C1738.045,1.665 1748.173,3.915 1755.118,9.614 C1760.905,14.414 1764.089,21.464 1764.089,30.764 C1764.089,43.663 1755.263,52.513 1746.871,55.663 L1746.871,56.113 C1753.671,58.962 1757.433,65.712 1759.893,75.012 ZM1726.037,18.614 C1720.683,18.614 1717.645,19.064 1716.054,19.364 L1716.054,47.263 L1724.735,47.263 C1735.731,47.263 1742.241,41.563 1742.241,32.713 C1742.241,23.414 1736.165,18.764 1726.037,18.614 ZM1634.449,105.161 C1609.853,105.161 1595.385,91.061 1595.385,58.812 L1595.385,2.415 L1617.521,2.415 L1617.521,60.612 C1617.521,78.012 1623.888,86.861 1635.173,86.861 C1646.748,86.861 1653.114,78.462 1653.114,60.612 L1653.114,2.415 L1675.106,2.415 L1675.106,59.112 C1675.106,90.311 1659.914,105.161 1634.449,105.161 ZM1557.187,103.511 L1535.050,103.511 L1535.050,21.614 L1508.863,21.614 L1508.863,2.415 L1583.809,2.415 L1583.809,21.614 L1557.187,21.614 L1557.187,103.511 ZM1461.549,67.812 C1458.655,67.812 1456.051,67.662 1454.025,67.362 L1454.025,103.511 L1432.178,103.511 L1432.178,3.765 C1438.978,2.565 1448.527,1.665 1461.983,1.665 C1475.583,1.665 1485.277,4.365 1491.788,9.764 C1498.009,14.864 1502.205,23.264 1502.205,33.163 C1502.205,43.063 1499.022,51.463 1493.234,57.162 C1485.711,64.512 1474.570,67.812 1461.549,67.812 ZM1463.140,18.914 C1458.655,18.914 1455.617,19.364 1454.025,19.814 L1454.025,49.663 C1455.906,50.113 1458.221,50.263 1461.404,50.263 C1473.123,50.263 1480.358,44.113 1480.358,33.763 C1480.358,24.464 1474.136,18.914 1463.140,18.914 ZM1387.903,77.562 L1359.979,77.562 L1353.034,103.511 L1330.174,103.511 L1359.979,2.415 L1388.915,2.415 L1419.154,103.511 L1395.426,103.511 L1387.903,77.562 ZM1378.643,39.013 C1376.907,33.013 1375.170,25.514 1373.724,19.514 L1373.434,19.514 C1371.987,25.514 1370.541,33.163 1368.949,39.013 L1363.162,60.462 L1384.719,60.462 L1378.643,39.013 ZM1299.500,19.664 C1281.994,19.664 1268.393,30.614 1268.393,53.113 C1268.393,73.362 1279.968,86.111 1299.645,86.111 C1306.301,86.111 1313.679,84.611 1318.020,82.811 L1321.348,100.661 C1317.297,102.761 1308.181,105.011 1296.317,105.011 C1262.606,105.011 1245.244,83.261 1245.244,54.463 C1245.244,19.964 1268.972,0.765 1298.488,0.765 C1309.918,0.765 1318.599,3.165 1322.505,5.265 L1318.020,23.414 C1313.535,21.464 1307.313,19.664 1299.500,19.664 ZM1176.227,77.562 L1148.303,77.562 L1141.358,103.511 L1118.498,103.511 L1148.303,2.415 L1177.240,2.415 L1207.479,103.511 L1183.751,103.511 L1176.227,77.562 ZM1166.967,39.013 C1165.231,33.013 1163.495,25.514 1162.048,19.514 L1161.759,19.514 C1160.312,25.514 1158.865,33.163 1157.274,39.013 L1151.486,60.462 L1173.044,60.462 L1166.967,39.013 ZM1097.662,103.511 L1075.525,103.511 L1075.525,21.614 L1049.337,21.614 L1049.337,2.415 L1124.283,2.415 L1124.283,21.614 L1097.662,21.614 L1097.662,103.511 ZM1031.972,103.511 L1024.449,77.562 L996.525,77.562 L989.580,103.511 L966.720,103.511 L996.525,2.415 L1025.462,2.415 L1055.700,103.511 L1031.972,103.511 ZM1015.189,39.013 C1013.453,33.013 1011.717,25.514 1010.270,19.514 L1009.980,19.514 C1008.534,25.514 1007.087,33.163 1005.495,39.013 L999.708,60.462 L1021.266,60.462 L1015.189,39.013 ZM900.450,104.561 C889.020,104.561 880.918,103.811 875.420,103.061 L875.420,3.765 C883.522,2.415 894.084,1.665 905.225,1.665 C923.744,1.665 935.753,5.115 945.157,12.464 C955.285,20.264 961.651,32.713 961.651,50.563 C961.651,69.912 954.851,83.261 945.447,91.511 C935.174,100.361 919.548,104.561 900.450,104.561 ZM907.539,19.214 C902.620,19.214 899.437,19.664 897.556,20.114 L897.556,86.261 C899.437,86.711 902.476,86.711 905.225,86.711 C925.191,86.861 938.212,75.462 938.212,51.313 C938.357,30.314 926.493,19.214 907.539,19.214 ZM796.419,104.561 C778.623,104.561 765.746,99.911 756.776,90.911 C747.806,82.211 742.886,69.012 743.031,54.163 C743.176,20.564 766.759,1.365 798.734,1.365 C811.322,1.365 821.016,3.915 825.790,6.315 L821.160,24.614 C815.807,22.214 809.152,20.264 798.445,20.264 C780.070,20.264 766.181,31.064 766.181,52.963 C766.181,73.812 778.768,86.111 796.853,86.111 C801.917,86.111 805.968,85.511 807.705,84.611 L807.705,63.462 L792.658,63.462 L792.658,45.613 L828.973,45.613 L828.973,98.861 C822.173,101.261 809.296,104.561 796.419,104.561 ZM684.432,64.512 C678.645,53.713 672.279,40.663 667.504,28.814 L667.070,28.964 C667.649,42.313 667.938,56.562 667.938,73.062 L667.938,103.511 L647.683,103.511 L647.683,2.415 L673.436,2.415 L693.692,39.463 C699.479,50.113 705.267,62.712 709.607,74.112 L710.041,74.112 C708.594,60.762 708.160,47.113 708.160,31.963 L708.160,2.415 L728.416,2.415 L728.416,103.511 L705.267,103.511 L684.432,64.512 ZM606.448,2.415 L628.584,2.415 L628.584,103.511 L606.448,103.511 L606.448,2.415 ZM566.366,103.511 L544.374,103.511 L544.374,62.112 L513.557,2.415 L538.732,2.415 L548.715,26.714 C551.753,34.063 553.779,39.463 556.238,46.063 L556.528,46.063 C558.698,39.763 561.013,33.913 563.907,26.714 L573.745,2.415 L598.486,2.415 L566.366,61.362 L566.366,103.511 ZM467.690,44.263 L502.704,44.263 L502.704,62.862 L467.690,62.862 L467.690,103.511 L445.554,103.511 L445.554,2.415 L505.163,2.415 L505.163,21.164 L467.690,21.164 L467.690,44.263 ZM404.319,2.415 L426.455,2.415 L426.455,103.511 L404.319,103.511 L404.319,2.415 ZM330.385,2.415 L352.521,2.415 L352.521,84.311 L391.296,84.311 L391.296,103.511 L330.385,103.511 L330.385,2.415 ZM275.692,67.812 C272.798,67.812 270.194,67.662 268.168,67.362 L268.168,103.511 L246.321,103.511 L246.321,3.765 C253.121,2.565 262.670,1.665 276.126,1.665 C289.726,1.665 299.420,4.365 305.931,9.764 C312.152,14.864 316.348,23.264 316.348,33.163 C316.348,43.063 313.165,51.463 307.378,57.162 C299.854,64.512 288.713,67.812 275.692,67.812 ZM277.283,18.914 C272.798,18.914 269.760,19.364 268.168,19.814 L268.168,49.663 C270.049,50.113 272.364,50.263 275.547,50.263 C287.267,50.263 294.501,44.113 294.501,33.763 C294.501,24.464 288.279,18.914 277.283,18.914 ZM206.385,64.812 C205.951,52.663 205.517,37.963 205.517,23.264 L205.083,23.264 C202.044,36.163 197.993,50.563 194.231,62.412 L182.367,101.861 L165.150,101.861 L154.733,62.712 C151.550,50.863 148.222,36.463 145.907,23.264 L145.618,23.264 C145.039,36.913 144.605,52.513 143.881,65.112 L142.145,103.511 L121.745,103.511 L127.966,2.415 L157.337,2.415 L166.886,36.163 C169.924,47.863 172.963,60.462 175.133,72.312 L175.567,72.312 C178.316,60.612 181.644,47.263 184.827,36.013 L195.244,2.415 L224.036,2.415 L229.389,103.511 L207.832,103.511 L206.385,64.812 ZM82.680,2.415 L104.817,2.415 L104.817,103.511 L82.680,103.511 L82.680,2.415 ZM67.776,73.662 C67.776,90.611 55.188,105.011 28.422,105.011 C17.281,105.011 6.285,102.011 0.787,98.861 L5.273,79.962 C11.205,83.111 20.320,86.261 29.724,86.261 C39.852,86.261 45.205,81.911 45.205,75.312 C45.205,69.012 40.575,65.412 28.856,61.062 C12.651,55.213 2.089,45.913 2.089,31.214 C2.089,13.964 15.979,0.765 38.984,0.765 C49.980,0.765 58.082,3.165 63.869,5.865 L58.950,24.314 C55.044,22.364 48.099,19.514 38.550,19.514 C29.001,19.514 24.371,24.014 24.371,29.264 C24.371,35.713 29.869,38.563 42.456,43.513 C59.674,50.113 67.776,59.412 67.776,73.662 Z"/>
</svg>

<svg 
 xmlns="http://www.w3.org/2000/svg"
 xmlns:xlink="http://www.w3.org/1999/xlink"
 width="742px" height="40px">
<text kerning="auto" font-family="Myriad Pro" fill="rgb(0, 0, 0)" font-size="58.333px" x="0px" y="39.923px"><tspan font-size="58.333px" font-weight="bold" fill="#010101">SIMPLIFYING&#32;DATA&#32;CAPTURE</tspan></text>
</svg>

<svg 
 xmlns="http://www.w3.org/2000/svg"
 xmlns:xlink="http://www.w3.org/1999/xlink"
 width="743px" height="42px">
<path fill-rule="evenodd"  fill="rgb(0, 0, 0)"
 d="M742.730,33.227 L742.730,40.519 L717.647,40.519 L717.647,1.202 L741.914,1.202 L741.914,8.493 L726.572,8.493 L726.572,16.660 L741.039,16.660 L741.039,23.894 L726.572,23.894 L726.572,33.227 L742.730,33.227 ZM709.540,29.436 C710.765,33.869 711.990,39.002 712.748,40.519 L703.648,40.519 C703.006,39.411 702.073,36.202 700.906,31.361 C699.856,26.460 698.164,25.119 694.548,25.060 L691.864,25.060 L691.864,40.519 L683.056,40.519 L683.056,1.727 C685.914,1.260 690.173,0.910 694.898,0.910 C700.731,0.910 704.815,1.785 707.615,4.002 C709.948,5.868 711.231,8.610 711.231,12.227 C711.231,17.244 707.673,20.685 704.290,21.910 L704.290,22.085 C707.031,23.194 708.548,25.819 709.540,29.436 ZM695.889,7.502 C693.731,7.502 692.506,7.677 691.864,7.793 L691.864,18.644 L695.364,18.644 C699.798,18.644 702.423,16.427 702.423,12.985 C702.423,9.368 699.973,7.560 695.889,7.502 ZM658.965,41.161 C649.048,41.161 643.215,35.677 643.215,23.135 L643.215,1.202 L652.140,1.202 L652.140,23.835 C652.140,30.602 654.707,34.044 659.257,34.044 C663.923,34.044 666.490,30.777 666.490,23.835 L666.490,1.202 L675.357,1.202 L675.357,23.252 C675.357,35.386 669.232,41.161 658.965,41.161 ZM627.816,40.519 L618.891,40.519 L618.891,8.668 L608.332,8.668 L608.332,1.202 L638.549,1.202 L638.549,8.668 L627.816,8.668 L627.816,40.519 ZM589.258,26.635 C588.091,26.635 587.041,26.577 586.224,26.460 L586.224,40.519 L577.416,40.519 L577.416,1.727 C580.158,1.260 584.008,0.910 589.433,0.910 C594.916,0.910 598.825,1.960 601.450,4.060 C603.958,6.043 605.650,9.310 605.650,13.160 C605.650,17.010 604.366,20.277 602.033,22.494 C599.000,25.352 594.508,26.635 589.258,26.635 ZM589.899,7.618 C588.091,7.618 586.866,7.793 586.224,7.968 L586.224,19.577 C586.983,19.752 587.916,19.810 589.199,19.810 C593.925,19.810 596.841,17.419 596.841,13.394 C596.841,9.777 594.333,7.618 589.899,7.618 ZM559.567,30.427 L548.308,30.427 L545.508,40.519 L536.292,40.519 L548.308,1.202 L559.975,1.202 L572.167,40.519 L562.600,40.519 L559.567,30.427 ZM555.834,15.435 C555.134,13.102 554.434,10.185 553.850,7.852 L553.734,7.852 C553.150,10.185 552.567,13.160 551.925,15.435 L549.592,23.777 L558.284,23.777 L555.834,15.435 ZM523.927,7.910 C516.868,7.910 511.385,12.169 511.385,20.919 C511.385,28.794 516.051,33.752 523.985,33.752 C526.668,33.752 529.643,33.169 531.393,32.469 L532.735,39.411 C531.102,40.227 527.427,41.102 522.643,41.102 C509.051,41.102 502.051,32.644 502.051,21.444 C502.051,8.027 511.618,0.560 523.518,0.560 C528.127,0.560 531.627,1.493 533.202,2.310 L531.393,9.368 C529.585,8.610 527.077,7.910 523.927,7.910 ZM474.227,30.427 L462.969,30.427 L460.169,40.519 L450.952,40.519 L462.969,1.202 L474.636,1.202 L486.828,40.519 L477.261,40.519 L474.227,30.427 ZM470.494,15.435 C469.794,13.102 469.094,10.185 468.511,7.852 L468.394,7.852 C467.811,10.185 467.227,13.160 466.586,15.435 L464.252,23.777 L472.944,23.777 L470.494,15.435 ZM442.553,40.519 L433.627,40.519 L433.627,8.668 L423.069,8.668 L423.069,1.202 L453.286,1.202 L453.286,8.668 L442.553,8.668 L442.553,40.519 ZM416.070,40.519 L413.036,30.427 L401.778,30.427 L398.978,40.519 L389.761,40.519 L401.778,1.202 L413.444,1.202 L425.636,40.519 L416.070,40.519 ZM409.303,15.435 C408.603,13.102 407.903,10.185 407.319,7.852 L407.203,7.852 C406.619,10.185 406.036,13.160 405.394,15.435 L403.061,23.777 L411.753,23.777 L409.303,15.435 ZM363.044,40.927 C358.436,40.927 355.169,40.636 352.952,40.344 L352.952,1.727 C356.219,1.202 360.477,0.910 364.969,0.910 C372.436,0.910 377.278,2.252 381.069,5.110 C385.153,8.143 387.719,12.985 387.719,19.927 C387.719,27.452 384.978,32.644 381.186,35.852 C377.044,39.294 370.744,40.927 363.044,40.927 ZM365.902,7.735 C363.919,7.735 362.636,7.910 361.877,8.085 L361.877,33.811 C362.636,33.986 363.861,33.986 364.969,33.986 C373.019,34.044 378.269,29.611 378.269,20.219 C378.328,12.052 373.544,7.735 365.902,7.735 ZM321.103,40.927 C313.928,40.927 308.736,39.119 305.120,35.619 C301.503,32.236 299.520,27.102 299.578,21.327 C299.636,8.260 309.145,0.793 322.037,0.793 C327.112,0.793 331.020,1.785 332.945,2.718 L331.078,9.835 C328.920,8.902 326.237,8.143 321.920,8.143 C314.512,8.143 308.911,12.344 308.911,20.860 C308.911,28.969 313.987,33.752 321.278,33.752 C323.320,33.752 324.953,33.519 325.653,33.169 L325.653,24.944 L319.587,24.944 L319.587,18.002 L334.229,18.002 L334.229,38.711 C331.487,39.644 326.295,40.927 321.103,40.927 ZM275.954,25.352 C273.621,21.152 271.054,16.077 269.129,11.469 L268.954,11.527 C269.187,16.719 269.304,22.260 269.304,28.677 L269.304,40.519 L261.137,40.519 L261.137,1.202 L271.521,1.202 L279.687,15.610 C282.021,19.752 284.354,24.652 286.104,29.086 L286.279,29.086 C285.696,23.894 285.521,18.585 285.521,12.694 L285.521,1.202 L293.688,1.202 L293.688,40.519 L284.354,40.519 L275.954,25.352 ZM244.513,1.202 L253.438,1.202 L253.438,40.519 L244.513,40.519 L244.513,1.202 ZM228.354,40.519 L219.488,40.519 L219.488,24.419 L207.062,1.202 L217.213,1.202 L221.238,10.652 C222.463,13.510 223.279,15.610 224.271,18.177 L224.388,18.177 C225.263,15.727 226.196,13.452 227.363,10.652 L231.330,1.202 L241.305,1.202 L228.354,24.127 L228.354,40.519 ZM188.571,17.477 L202.688,17.477 L202.688,24.710 L188.571,24.710 L188.571,40.519 L179.646,40.519 L179.646,1.202 L203.680,1.202 L203.680,8.493 L188.571,8.493 L188.571,17.477 ZM163.022,1.202 L171.947,1.202 L171.947,40.519 L163.022,40.519 L163.022,1.202 ZM133.215,1.202 L142.140,1.202 L142.140,33.052 L157.773,33.052 L157.773,40.519 L133.215,40.519 L133.215,1.202 ZM111.165,26.635 C109.999,26.635 108.949,26.577 108.132,26.460 L108.132,40.519 L99.323,40.519 L99.323,1.727 C102.065,1.260 105.915,0.910 111.340,0.910 C116.824,0.910 120.732,1.960 123.357,4.060 C125.865,6.043 127.557,9.310 127.557,13.160 C127.557,17.010 126.274,20.277 123.940,22.494 C120.907,25.352 116.415,26.635 111.165,26.635 ZM111.807,7.618 C109.999,7.618 108.774,7.793 108.132,7.968 L108.132,19.577 C108.890,19.752 109.824,19.810 111.107,19.810 C115.832,19.810 118.749,17.419 118.749,13.394 C118.749,9.777 116.240,7.618 111.807,7.618 ZM83.224,25.469 C83.049,20.744 82.874,15.027 82.874,9.310 L82.699,9.310 C81.474,14.327 79.841,19.927 78.324,24.535 L73.541,39.877 L66.599,39.877 L62.399,24.652 C61.116,20.044 59.774,14.444 58.841,9.310 L58.724,9.310 C58.491,14.619 58.316,20.685 58.024,25.585 L57.324,40.519 L49.099,40.519 L51.607,1.202 L63.449,1.202 L67.299,14.327 C68.524,18.877 69.749,23.777 70.624,28.385 L70.799,28.385 C71.908,23.835 73.249,18.644 74.533,14.269 L78.733,1.202 L90.341,1.202 L92.500,40.519 L83.808,40.519 L83.224,25.469 ZM33.350,1.202 L42.275,1.202 L42.275,40.519 L33.350,40.519 L33.350,1.202 ZM27.342,28.911 C27.342,35.502 22.267,41.102 11.475,41.102 C6.983,41.102 2.550,39.936 0.333,38.711 L2.142,31.361 C4.533,32.586 8.209,33.811 12.000,33.811 C16.084,33.811 18.242,32.119 18.242,29.552 C18.242,27.102 16.375,25.702 11.650,24.010 C5.117,21.735 0.858,18.119 0.858,12.402 C0.858,5.693 6.458,0.560 15.734,0.560 C20.167,0.560 23.434,1.493 25.767,2.543 L23.784,9.719 C22.209,8.960 19.409,7.852 15.559,7.852 C11.709,7.852 9.842,9.602 9.842,11.644 C9.842,14.152 12.059,15.260 17.134,17.185 C24.075,19.752 27.342,23.369 27.342,28.911 Z"/>
</svg>

<svg 
 xmlns="http://www.w3.org/2000/svg"
 xmlns:xlink="http://www.w3.org/1999/xlink"
 width="720px" height="41px">
<path fill-rule="evenodd"  fill="rgb(0, 0, 0)"
 d="M719.224,33.481 L719.224,39.519 L693.960,39.519 L693.960,0.640 L718.968,0.640 L718.968,6.422 L700.967,6.422 L700.967,16.960 L715.436,16.960 L715.436,22.600 L700.967,22.600 L700.967,33.481 L719.224,33.481 ZM686.782,39.519 L679.377,39.519 L673.338,23.540 L663.483,23.540 L663.483,39.519 L656.476,39.519 L656.476,0.640 L673.338,0.640 C678.028,0.640 681.475,1.698 683.678,3.816 C685.880,5.933 686.982,8.672 686.982,12.033 C686.982,17.027 684.646,20.464 679.975,22.344 L686.782,39.519 ZM677.867,7.803 C676.652,6.749 674.952,6.222 672.769,6.222 L663.483,6.222 L663.483,17.929 L672.199,17.929 C674.724,17.929 676.604,17.398 677.839,16.334 C679.073,15.271 679.690,13.809 679.690,11.947 C679.690,10.239 679.082,8.857 677.867,7.803 ZM642.933,38.138 C640.758,39.458 638.105,40.117 634.972,40.117 C631.800,40.117 629.194,39.548 627.153,38.408 C625.112,37.269 623.645,35.707 622.752,33.723 C621.860,31.739 621.414,29.208 621.414,26.132 L621.414,0.640 L628.563,0.640 L628.563,25.619 C628.563,29.037 629.280,31.283 630.714,32.356 C632.147,33.429 633.813,33.965 635.712,33.965 C637.896,33.965 639.643,33.391 640.953,32.242 C642.263,31.093 642.918,28.886 642.918,25.619 L642.918,0.640 L648.473,0.640 L648.473,25.619 C648.473,28.999 648.093,31.601 647.333,33.424 C646.574,35.247 645.107,36.818 642.933,38.138 ZM607.172,39.519 L599.653,39.519 L599.653,6.650 L589.313,6.650 L589.313,0.640 L617.512,0.640 L617.512,6.650 L607.172,6.650 L607.172,39.519 ZM575.357,24.110 L565.644,24.110 L565.644,39.519 L558.637,39.519 L558.637,0.640 L574.559,0.640 C579.097,0.640 582.463,1.784 584.656,4.072 C586.850,6.360 587.946,9.061 587.946,12.175 C587.946,15.726 586.759,18.603 584.386,20.806 C582.012,23.009 579.003,24.110 575.357,24.110 ZM579.017,8.159 C577.963,7.020 576.059,6.450 573.306,6.450 L565.644,6.450 L565.644,18.100 L573.933,18.100 C576.097,18.100 577.749,17.568 578.889,16.505 C580.028,15.442 580.598,14.027 580.598,12.261 C580.598,10.666 580.071,9.299 579.017,8.159 ZM543.370,30.262 L528.417,30.262 L525.369,39.519 L519.388,39.519 L532.290,0.640 L540.921,0.640 L553.966,39.519 L546.475,39.519 L543.370,30.262 ZM535.822,7.305 L530.154,24.651 L541.490,24.651 L535.822,7.305 ZM504.007,34.221 C506.058,34.221 507.804,33.414 509.248,31.800 C510.690,30.186 511.507,28.259 511.697,26.018 L518.191,26.730 C517.773,30.623 516.269,33.827 513.677,36.343 C511.085,38.859 507.681,40.117 503.466,40.117 C499.915,40.117 497.033,39.225 494.821,37.440 C492.609,35.655 490.905,33.234 489.708,30.177 C488.512,27.120 487.914,23.749 487.914,20.065 C487.914,14.141 489.319,9.323 492.129,5.610 C494.939,1.898 498.804,0.042 503.722,0.042 C507.577,0.042 510.786,1.229 513.349,3.602 C515.913,5.976 517.526,9.375 518.191,13.799 L511.697,14.482 C510.501,8.615 507.861,5.681 503.779,5.681 C501.158,5.681 499.122,6.902 497.669,9.341 C496.217,11.781 495.490,15.318 495.490,19.951 C495.490,24.661 496.269,28.216 497.826,30.618 C499.383,33.020 501.443,34.221 504.007,34.221 ZM460.114,30.262 L445.161,30.262 L442.113,39.519 L436.132,39.519 L449.035,0.640 L457.665,0.640 L470.710,39.519 L463.219,39.519 L460.114,30.262 ZM452.566,7.305 L446.898,24.651 L458.235,24.651 L452.566,7.305 ZM428.612,39.519 L421.093,39.519 L421.093,6.650 L410.753,6.650 L410.753,0.640 L438.952,0.640 L438.952,6.650 L428.612,6.650 L428.612,39.519 ZM406.025,39.519 L402.921,30.262 L387.967,30.262 L384.919,39.519 L378.938,39.519 L391.841,0.640 L400.471,0.640 L413.516,39.519 L406.025,39.519 ZM395.373,7.305 L389.704,24.651 L401.041,24.651 L395.373,7.305 ZM358.829,39.519 L346.068,39.519 L346.068,0.640 L360.395,0.640 C365.693,0.640 369.947,2.515 373.156,6.265 C376.365,10.016 377.969,14.644 377.969,20.151 C377.969,25.658 376.317,30.262 373.013,33.965 C369.709,37.668 364.981,39.519 358.829,39.519 ZM367.502,10.110 C365.594,7.481 363.073,6.165 359.940,6.165 L353.275,6.165 L353.275,33.794 L359.114,33.794 C362.247,33.794 364.905,32.617 367.089,30.262 C369.272,27.908 370.365,24.404 370.365,19.752 C370.365,15.954 369.410,12.741 367.502,10.110 ZM318.497,34.278 C316.237,38.171 312.734,40.117 307.987,40.117 C302.689,40.117 298.734,38.105 296.124,34.079 C293.512,30.053 292.207,25.391 292.207,20.094 C292.207,14.492 293.664,9.750 296.579,5.866 C299.494,1.983 303.572,0.042 308.813,0.042 C312.724,0.042 315.943,1.176 318.468,3.445 C320.994,5.715 322.589,8.539 323.254,11.919 L317.158,13.001 C316.019,8.254 313.294,5.881 308.984,5.881 C306.230,5.881 303.985,7.001 302.247,9.242 C300.510,11.482 299.641,14.929 299.641,19.581 C299.641,29.398 302.717,34.307 308.870,34.307 C311.262,34.307 313.242,33.481 314.808,31.829 C316.375,30.177 317.158,27.993 317.158,25.278 L309.126,25.278 L309.126,19.638 L323.738,19.638 L323.738,39.519 L320.633,39.519 L318.497,34.278 ZM264.123,14.682 C263.895,14.302 263.525,13.685 263.012,12.830 C262.784,12.451 262.433,11.853 261.958,11.036 L261.958,39.519 L256.319,39.519 L256.319,0.640 L264.066,0.640 L277.681,23.540 C277.795,23.730 278.621,25.126 280.159,27.727 L280.159,0.640 L285.685,0.640 L285.685,39.519 L278.877,39.519 L264.123,14.682 ZM240.767,0.640 L247.774,0.640 L247.774,39.519 L240.767,39.519 L240.767,0.640 ZM224.702,39.519 L217.268,39.519 L217.268,23.113 L204.024,0.640 L212.512,0.640 L221.740,16.676 L230.570,0.640 L237.292,0.640 L224.702,23.113 L224.702,39.519 ZM186.649,6.650 L186.649,17.274 L200.321,17.274 L200.321,23.113 L186.649,23.113 L186.649,39.519 L179.443,39.519 L179.443,0.640 L204.024,0.640 L204.024,6.650 L186.649,6.650 ZM163.891,0.640 L170.898,0.640 L170.898,39.519 L163.891,39.519 L163.891,0.640 ZM134.810,0.640 L142.187,0.640 L142.187,33.167 L158.736,33.167 L158.736,39.519 L134.810,39.519 L134.810,0.640 ZM116.581,24.110 L106.868,24.110 L106.868,39.519 L99.861,39.519 L99.861,0.640 L115.783,0.640 C120.322,0.640 123.687,1.784 125.881,4.072 C128.074,6.360 129.170,9.061 129.170,12.175 C129.170,15.726 127.983,18.603 125.610,20.806 C123.236,23.009 120.227,24.110 116.581,24.110 ZM120.241,8.159 C119.187,7.020 117.283,6.450 114.530,6.450 L106.868,6.450 L106.868,18.100 L115.157,18.100 C117.321,18.100 118.974,17.568 120.113,16.505 C121.252,15.442 121.822,14.027 121.822,12.261 C121.822,10.666 121.295,9.299 120.241,8.159 ZM84.139,5.482 L73.372,39.519 L69.698,39.519 L58.874,5.482 L58.874,39.519 L53.149,39.519 L53.149,0.640 L64.115,0.640 L72.261,25.676 L80.265,0.640 L91.288,0.640 L91.288,39.519 L84.139,39.519 L84.139,5.482 ZM37.598,0.640 L44.604,0.640 L44.604,39.519 L37.598,39.519 L37.598,0.640 ZM21.476,16.847 C25.483,17.853 28.170,19.339 29.537,21.304 C30.904,23.269 31.588,25.439 31.588,27.813 C31.588,31.629 30.149,34.634 27.272,36.827 C24.396,39.021 20.669,40.117 16.093,40.117 C12.238,40.117 8.863,39.310 5.967,37.696 C3.071,36.082 1.149,33.566 0.199,30.148 L7.007,28.695 C7.823,32.550 10.956,34.478 16.406,34.478 C18.894,34.478 20.807,33.984 22.146,32.996 C23.484,32.009 24.154,30.785 24.154,29.322 C24.154,28.259 23.850,27.276 23.242,26.374 C22.634,25.472 21.334,24.765 19.340,24.252 L11.906,22.315 C9.361,21.651 7.481,20.896 6.266,20.051 C5.051,19.206 4.078,18.014 3.347,16.476 C2.616,14.938 2.250,13.296 2.250,11.549 C2.250,8.074 3.541,5.287 6.124,3.189 C8.706,1.091 12.010,0.042 16.036,0.042 C19.378,0.042 22.364,0.773 24.994,2.235 C27.624,3.697 29.299,5.767 30.021,8.444 L23.356,10.096 C22.331,7.153 19.938,5.681 16.178,5.681 C13.995,5.681 12.328,6.137 11.180,7.048 C10.030,7.960 9.456,9.118 9.456,10.523 C9.456,12.745 11.260,14.302 14.868,15.195 L21.476,16.847 Z"/>
</svg>

<svg 
 xmlns="http://www.w3.org/2000/svg"
 xmlns:xlink="http://www.w3.org/1999/xlink"
 width="817px" height="42px">
<path fill-rule="evenodd"  fill="rgb(0, 0, 0)"
 d="M816.406,33.527 L816.406,41.519 L791.323,41.519 L791.323,0.569 L816.406,0.569 L816.406,8.561 L801.298,8.561 L801.298,16.844 L814.656,16.844 L814.656,24.544 L801.298,24.544 L801.298,33.527 L816.406,33.527 ZM774.174,41.519 L765.657,26.061 L763.265,26.061 L763.265,41.519 L753.290,41.519 L753.290,0.569 L770.032,0.569 C773.259,0.569 776.011,1.133 778.286,2.261 C780.561,3.389 782.262,4.935 783.390,6.898 C784.518,8.862 785.082,11.050 785.082,13.461 C785.082,16.183 784.314,18.614 782.778,20.752 C781.241,22.892 778.976,24.408 775.982,25.302 L785.432,41.519 L774.174,41.519 ZM773.561,10.194 C772.647,9.300 771.276,8.852 769.449,8.852 L763.265,8.852 L763.265,19.002 L769.449,19.002 C771.276,19.002 772.647,18.556 773.561,17.661 C774.474,16.767 774.932,15.502 774.932,13.869 C774.932,12.314 774.474,11.089 773.561,10.194 ZM737.687,40.002 C735.062,41.286 732.135,41.927 728.908,41.927 C725.679,41.927 722.792,41.296 720.245,40.032 C717.698,38.768 715.685,36.862 714.208,34.315 C712.729,31.768 711.991,28.667 711.991,25.011 L711.991,0.569 L721.966,0.569 L721.966,25.069 C721.966,27.519 722.569,29.406 723.775,30.727 C724.979,32.050 726.750,32.711 729.083,32.711 C731.416,32.711 733.204,32.050 734.450,30.727 C735.694,29.406 736.316,27.519 736.316,25.069 L736.316,0.569 L746.291,0.569 L746.291,25.011 C746.291,28.667 745.513,31.758 743.958,34.286 C742.402,36.814 740.312,38.719 737.687,40.002 ZM696.300,41.519 L686.325,41.519 L686.325,8.561 L675.475,8.561 L675.475,0.569 L707.150,0.569 L707.150,8.561 L696.300,8.561 L696.300,41.519 ZM665.851,25.011 C663.595,26.217 660.795,26.819 657.451,26.819 L651.267,26.819 L651.267,41.519 L641.292,41.519 L641.292,0.569 L657.451,0.569 C660.717,0.569 663.478,1.133 665.734,2.261 C667.989,3.389 669.681,4.944 670.809,6.927 C671.937,8.911 672.501,11.186 672.501,13.752 C672.501,16.125 671.956,18.293 670.867,20.257 C669.778,22.221 668.106,23.806 665.851,25.011 ZM660.951,9.961 C660.017,9.067 658.597,8.619 656.692,8.619 L651.267,8.619 L651.267,18.886 L656.692,18.886 C658.597,18.886 660.017,18.439 660.951,17.544 C661.884,16.650 662.351,15.386 662.351,13.752 C662.351,12.119 661.884,10.856 660.951,9.961 ZM623.793,34.286 L608.509,34.286 L606.059,41.519 L595.618,41.519 L610.434,0.569 L621.984,0.569 L636.801,41.519 L626.243,41.519 L623.793,34.286 ZM616.151,11.594 L611.134,26.586 L621.226,26.586 L616.151,11.594 ZM572.635,32.769 C574.540,32.769 576.241,32.322 577.739,31.427 C579.236,30.533 580.393,29.231 581.210,27.519 L592.176,27.519 C591.010,31.952 588.696,35.443 585.235,37.990 C581.773,40.537 577.612,41.811 572.751,41.811 C568.785,41.811 565.236,40.927 562.106,39.157 C558.975,37.387 556.535,34.927 554.785,31.777 C553.035,28.627 552.160,25.031 552.160,20.986 C552.160,16.942 553.035,13.335 554.785,10.165 C556.535,6.996 558.975,4.527 562.106,2.757 C565.236,0.987 568.785,0.102 572.751,0.102 C577.612,0.102 581.773,1.386 585.235,3.952 C588.696,6.519 591.010,10.019 592.176,14.452 L581.210,14.452 C580.393,12.742 579.236,11.439 577.739,10.544 C576.241,9.650 574.540,9.202 572.635,9.202 C569.562,9.202 567.073,10.272 565.168,12.411 C563.262,14.550 562.310,17.408 562.310,20.986 C562.310,24.564 563.262,27.422 565.168,29.561 C567.073,31.700 569.562,32.769 572.635,32.769 ZM523.985,34.286 L508.702,34.286 L506.252,41.519 L495.811,41.519 L510.627,0.569 L522.177,0.569 L536.994,41.519 L526.435,41.519 L523.985,34.286 ZM516.344,11.594 L511.327,26.586 L521.419,26.586 L516.344,11.594 ZM482.628,41.519 L472.653,41.519 L472.653,8.561 L461.803,8.561 L461.803,0.569 L493.478,0.569 L493.478,8.561 L482.628,8.561 L482.628,41.519 ZM446.520,34.286 L431.236,34.286 L428.786,41.519 L418.345,41.519 L433.161,0.569 L444.711,0.569 L459.528,41.519 L448.970,41.519 L446.520,34.286 ZM438.878,11.594 L433.861,26.586 L443.953,26.586 L438.878,11.594 ZM405.250,38.952 C402.002,40.664 398.240,41.519 393.962,41.519 L378.620,41.519 L378.620,0.569 L393.962,0.569 C398.279,0.569 402.050,1.425 405.279,3.136 C408.506,4.848 411.004,7.248 412.775,10.340 C414.544,13.432 415.429,17.000 415.429,21.044 C415.429,25.050 414.544,28.608 412.775,31.719 C411.004,34.831 408.496,37.242 405.250,38.952 ZM402.129,12.236 C400.029,10.136 397.092,9.086 393.320,9.086 L388.595,9.086 L388.595,32.886 L393.320,32.886 C397.092,32.886 400.029,31.856 402.129,29.794 C404.229,27.733 405.279,24.817 405.279,21.044 C405.279,17.272 404.229,14.336 402.129,12.236 ZM350.213,39.827 C347.491,41.150 344.418,41.811 340.996,41.811 C336.951,41.811 333.345,40.927 330.176,39.157 C327.006,37.387 324.536,34.927 322.767,31.777 C320.997,28.627 320.113,25.031 320.113,20.986 C320.113,16.942 320.997,13.335 322.767,10.165 C324.536,6.996 326.996,4.527 330.146,2.757 C333.296,0.987 336.893,0.102 340.938,0.102 C345.838,0.102 349.970,1.289 353.334,3.661 C356.697,6.033 358.924,9.319 360.013,13.519 L348.988,13.519 C348.249,12.158 347.189,11.118 345.809,10.398 C344.428,9.679 342.805,9.319 340.938,9.319 C337.710,9.319 335.124,10.379 333.180,12.498 C331.235,14.618 330.263,17.447 330.263,20.986 C330.263,24.758 331.284,27.704 333.326,29.823 C335.367,31.943 338.176,33.002 341.755,33.002 C344.205,33.002 346.276,32.381 347.967,31.136 C349.659,29.892 350.893,28.102 351.671,25.769 L339.013,25.769 L339.013,18.419 L360.713,18.419 L360.713,27.694 C359.974,30.183 358.720,32.497 356.951,34.636 C355.181,36.775 352.935,38.506 350.213,39.827 ZM287.913,16.261 L287.913,41.519 L277.938,41.519 L277.938,0.569 L287.913,0.569 L304.597,25.944 L304.597,0.569 L314.572,0.569 L314.572,41.519 L304.597,41.519 L287.913,16.261 ZM260.730,0.569 L270.705,0.569 L270.705,41.519 L260.730,41.519 L260.730,0.569 ZM242.531,41.519 L232.556,41.519 L232.556,27.986 L218.381,0.569 L229.697,0.569 L237.631,17.719 L245.506,0.569 L256.706,0.569 L242.531,27.986 L242.531,41.519 ZM199.656,17.194 L212.139,17.194 L212.139,24.952 L199.656,24.952 L199.656,41.519 L189.681,41.519 L189.681,0.569 L216.339,0.569 L216.339,8.561 L199.656,8.561 L199.656,17.194 ZM172.473,0.569 L182.448,0.569 L182.448,41.519 L172.473,41.519 L172.473,0.569 ZM144.649,0.569 L154.624,0.569 L154.624,33.819 L167.690,33.819 L167.690,41.519 L144.649,41.519 L144.649,0.569 ZM132.807,25.011 C130.551,26.217 127.751,26.819 124.407,26.819 L118.224,26.819 L118.224,41.519 L108.249,41.519 L108.249,0.569 L124.407,0.569 C127.674,0.569 130.435,1.133 132.691,2.261 C134.946,3.389 136.637,4.944 137.766,6.927 C138.893,8.911 139.457,11.186 139.457,13.752 C139.457,16.125 138.912,18.293 137.824,20.257 C136.735,22.221 135.062,23.806 132.807,25.011 ZM127.907,9.961 C126.974,9.067 125.554,8.619 123.649,8.619 L118.224,8.619 L118.224,18.886 L123.649,18.886 C125.554,18.886 126.974,18.439 127.907,17.544 C128.841,16.650 129.307,15.386 129.307,13.752 C129.307,12.119 128.841,10.856 127.907,9.961 ZM91.099,16.961 L81.941,41.519 L73.891,41.519 L64.674,16.902 L64.674,41.519 L54.699,41.519 L54.699,0.569 L66.482,0.569 L77.974,28.919 L89.349,0.569 L101.074,0.569 L101.074,41.519 L91.099,41.519 L91.099,16.961 ZM37.491,0.569 L47.466,0.569 L47.466,41.519 L37.491,41.519 L37.491,0.569 ZM18.825,17.194 C21.469,18.089 23.617,18.944 25.271,19.761 C26.923,20.577 28.352,21.764 29.558,23.319 C30.763,24.875 31.367,26.877 31.367,29.327 C31.367,31.661 30.773,33.781 29.587,35.686 C28.401,37.592 26.680,39.108 24.425,40.236 C22.169,41.364 19.505,41.927 16.433,41.927 C13.438,41.927 10.755,41.442 8.383,40.469 C6.011,39.497 4.115,38.058 2.696,36.152 C1.276,34.247 0.527,31.952 0.450,29.269 L11.067,29.269 C11.222,30.786 11.747,31.943 12.642,32.740 C13.536,33.537 14.702,33.936 16.142,33.936 C17.619,33.936 18.786,33.596 19.642,32.915 C20.497,32.235 20.925,31.292 20.925,30.086 C20.925,29.075 20.584,28.239 19.904,27.577 C19.223,26.917 18.387,26.372 17.396,25.944 C16.404,25.517 14.994,25.031 13.167,24.486 C10.522,23.669 8.363,22.852 6.692,22.036 C5.019,21.219 3.580,20.014 2.375,18.419 C1.169,16.825 0.567,14.744 0.567,12.177 C0.567,8.367 1.947,5.382 4.708,3.223 C7.469,1.065 11.067,-0.014 15.500,-0.014 C20.011,-0.014 23.647,1.065 26.408,3.223 C29.169,5.382 30.647,8.386 30.842,12.236 L20.050,12.236 C19.972,10.914 19.486,9.873 18.592,9.115 C17.697,8.357 16.550,7.977 15.150,7.977 C13.944,7.977 12.972,8.298 12.233,8.940 C11.494,9.582 11.125,10.506 11.125,11.711 C11.125,13.033 11.747,14.064 12.992,14.802 C14.236,15.542 16.180,16.339 18.825,17.194 Z"/>
</svg>

<svg 
 xmlns="http://www.w3.org/2000/svg"
 xmlns:xlink="http://www.w3.org/1999/xlink"
 width="743px" height="42px">
<path fill-rule="evenodd"  fill="rgb(0, 0, 0)"
 d="M742.513,33.227 L742.513,40.519 L717.430,40.519 L717.430,1.202 L741.697,1.202 L741.697,8.493 L726.355,8.493 L726.355,16.660 L740.822,16.660 L740.822,23.894 L726.355,23.894 L726.355,33.227 L742.513,33.227 ZM709.323,29.436 C710.548,33.869 711.773,39.002 712.531,40.519 L703.431,40.519 C702.789,39.411 701.856,36.202 700.689,31.361 C699.639,26.460 697.948,25.119 694.331,25.060 L691.647,25.060 L691.647,40.519 L682.839,40.519 L682.839,1.727 C685.697,1.260 689.956,0.910 694.681,0.910 C700.514,0.910 704.598,1.785 707.398,4.002 C709.731,5.868 711.014,8.610 711.014,12.227 C711.014,17.244 707.456,20.685 704.073,21.910 L704.073,22.085 C706.814,23.194 708.331,25.819 709.323,29.436 ZM695.672,7.502 C693.514,7.502 692.289,7.677 691.647,7.793 L691.647,18.644 L695.147,18.644 C699.581,18.644 702.206,16.427 702.206,12.985 C702.206,9.368 699.756,7.560 695.672,7.502 ZM658.748,41.161 C648.831,41.161 642.998,35.677 642.998,23.135 L642.998,1.202 L651.923,1.202 L651.923,23.835 C651.923,30.602 654.490,34.044 659.040,34.044 C663.707,34.044 666.273,30.777 666.273,23.835 L666.273,1.202 L675.140,1.202 L675.140,23.252 C675.140,35.386 669.015,41.161 658.748,41.161 ZM627.599,40.519 L618.674,40.519 L618.674,8.668 L608.115,8.668 L608.115,1.202 L638.332,1.202 L638.332,8.668 L627.599,8.668 L627.599,40.519 ZM589.041,26.635 C587.874,26.635 586.824,26.577 586.008,26.460 L586.008,40.519 L577.199,40.519 L577.199,1.727 C579.941,1.260 583.791,0.910 589.216,0.910 C594.699,0.910 598.608,1.960 601.233,4.060 C603.741,6.043 605.433,9.310 605.433,13.160 C605.433,17.010 604.149,20.277 601.816,22.494 C598.783,25.352 594.291,26.635 589.041,26.635 ZM589.683,7.618 C587.874,7.618 586.649,7.793 586.008,7.968 L586.008,19.577 C586.766,19.752 587.699,19.810 588.983,19.810 C593.708,19.810 596.624,17.419 596.624,13.394 C596.624,9.777 594.116,7.618 589.683,7.618 ZM559.350,30.427 L548.091,30.427 L545.291,40.519 L536.075,40.519 L548.091,1.202 L559.758,1.202 L571.950,40.519 L562.383,40.519 L559.350,30.427 ZM555.617,15.435 C554.917,13.102 554.217,10.185 553.633,7.852 L553.517,7.852 C552.933,10.185 552.350,13.160 551.708,15.435 L549.375,23.777 L558.067,23.777 L555.617,15.435 ZM523.710,7.910 C516.651,7.910 511.168,12.169 511.168,20.919 C511.168,28.794 515.834,33.752 523.768,33.752 C526.451,33.752 529.426,33.169 531.176,32.469 L532.518,39.411 C530.885,40.227 527.210,41.102 522.426,41.102 C508.834,41.102 501.834,32.644 501.834,21.444 C501.834,8.027 511.401,0.560 523.301,0.560 C527.910,0.560 531.410,1.493 532.985,2.310 L531.176,9.368 C529.368,8.610 526.860,7.910 523.710,7.910 ZM474.010,30.427 L462.752,30.427 L459.952,40.519 L450.735,40.519 L462.752,1.202 L474.419,1.202 L486.611,40.519 L477.044,40.519 L474.010,30.427 ZM470.277,15.435 C469.577,13.102 468.877,10.185 468.294,7.852 L468.177,7.852 C467.594,10.185 467.010,13.160 466.369,15.435 L464.035,23.777 L472.727,23.777 L470.277,15.435 ZM442.336,40.519 L433.410,40.519 L433.410,8.668 L422.852,8.668 L422.852,1.202 L453.069,1.202 L453.069,8.668 L442.336,8.668 L442.336,40.519 ZM415.853,40.519 L412.819,30.427 L401.561,30.427 L398.761,40.519 L389.544,40.519 L401.561,1.202 L413.227,1.202 L425.419,40.519 L415.853,40.519 ZM409.086,15.435 C408.386,13.102 407.686,10.185 407.102,7.852 L406.986,7.852 C406.402,10.185 405.819,13.160 405.177,15.435 L402.844,23.777 L411.536,23.777 L409.086,15.435 ZM362.827,40.927 C358.219,40.927 354.952,40.636 352.735,40.344 L352.735,1.727 C356.002,1.202 360.260,0.910 364.752,0.910 C372.219,0.910 377.061,2.252 380.852,5.110 C384.936,8.143 387.502,12.985 387.502,19.927 C387.502,27.452 384.761,32.644 380.969,35.852 C376.827,39.294 370.527,40.927 362.827,40.927 ZM365.685,7.735 C363.702,7.735 362.419,7.910 361.660,8.085 L361.660,33.811 C362.419,33.986 363.644,33.986 364.752,33.986 C372.802,34.044 378.052,29.611 378.052,20.219 C378.111,12.052 373.327,7.735 365.685,7.735 ZM320.886,40.927 C313.711,40.927 308.519,39.119 304.903,35.619 C301.286,32.236 299.303,27.102 299.361,21.327 C299.419,8.260 308.928,0.793 321.820,0.793 C326.895,0.793 330.803,1.785 332.728,2.718 L330.862,9.835 C328.703,8.902 326.020,8.143 321.703,8.143 C314.295,8.143 308.694,12.344 308.694,20.860 C308.694,28.969 313.770,33.752 321.061,33.752 C323.103,33.752 324.736,33.519 325.436,33.169 L325.436,24.944 L319.370,24.944 L319.370,18.002 L334.012,18.002 L334.012,38.711 C331.270,39.644 326.078,40.927 320.886,40.927 ZM275.737,25.352 C273.404,21.152 270.837,16.077 268.912,11.469 L268.737,11.527 C268.970,16.719 269.087,22.260 269.087,28.677 L269.087,40.519 L260.920,40.519 L260.920,1.202 L271.304,1.202 L279.470,15.610 C281.804,19.752 284.137,24.652 285.887,29.086 L286.062,29.086 C285.479,23.894 285.304,18.585 285.304,12.694 L285.304,1.202 L293.471,1.202 L293.471,40.519 L284.137,40.519 L275.737,25.352 ZM244.296,1.202 L253.221,1.202 L253.221,40.519 L244.296,40.519 L244.296,1.202 ZM228.138,40.519 L219.271,40.519 L219.271,24.419 L206.846,1.202 L216.996,1.202 L221.021,10.652 C222.246,13.510 223.062,15.610 224.054,18.177 L224.171,18.177 C225.046,15.727 225.979,13.452 227.146,10.652 L231.113,1.202 L241.088,1.202 L228.138,24.127 L228.138,40.519 ZM188.355,17.477 L202.471,17.477 L202.471,24.710 L188.355,24.710 L188.355,40.519 L179.429,40.519 L179.429,1.202 L203.463,1.202 L203.463,8.493 L188.355,8.493 L188.355,17.477 ZM162.805,1.202 L171.730,1.202 L171.730,40.519 L162.805,40.519 L162.805,1.202 ZM132.998,1.202 L141.923,1.202 L141.923,33.052 L157.556,33.052 L157.556,40.519 L132.998,40.519 L132.998,1.202 ZM110.948,26.635 C109.782,26.635 108.732,26.577 107.915,26.460 L107.915,40.519 L99.106,40.519 L99.106,1.727 C101.848,1.260 105.698,0.910 111.123,0.910 C116.607,0.910 120.515,1.960 123.140,4.060 C125.649,6.043 127.340,9.310 127.340,13.160 C127.340,17.010 126.057,20.277 123.724,22.494 C120.690,25.352 116.198,26.635 110.948,26.635 ZM111.590,7.618 C109.782,7.618 108.557,7.793 107.915,7.968 L107.915,19.577 C108.673,19.752 109.607,19.810 110.890,19.810 C115.615,19.810 118.532,17.419 118.532,13.394 C118.532,9.777 116.023,7.618 111.590,7.618 ZM83.008,25.469 C82.833,20.744 82.658,15.027 82.658,9.310 L82.483,9.310 C81.257,14.327 79.624,19.927 78.107,24.535 L73.324,39.877 L66.382,39.877 L62.182,24.652 C60.899,20.044 59.557,14.444 58.624,9.310 L58.507,9.310 C58.274,14.619 58.099,20.685 57.807,25.585 L57.107,40.519 L48.882,40.519 L51.390,1.202 L63.232,1.202 L67.082,14.327 C68.307,18.877 69.532,23.777 70.407,28.385 L70.582,28.385 C71.691,23.835 73.032,18.644 74.316,14.269 L78.516,1.202 L90.124,1.202 L92.283,40.519 L83.591,40.519 L83.008,25.469 ZM33.133,1.202 L42.058,1.202 L42.058,40.519 L33.133,40.519 L33.133,1.202 ZM27.125,28.911 C27.125,35.502 22.050,41.102 11.258,41.102 C6.767,41.102 2.333,39.936 0.116,38.711 L1.925,31.361 C4.317,32.586 7.992,33.811 11.783,33.811 C15.867,33.811 18.025,32.119 18.025,29.552 C18.025,27.102 16.158,25.702 11.433,24.010 C4.900,21.735 0.641,18.119 0.641,12.402 C0.641,5.693 6.242,0.560 15.517,0.560 C19.950,0.560 23.217,1.493 25.550,2.543 L23.567,9.719 C21.992,8.960 19.192,7.852 15.342,7.852 C11.492,7.852 9.625,9.602 9.625,11.644 C9.625,14.152 11.842,15.260 16.917,17.185 C23.859,19.752 27.125,23.369 27.125,28.911 Z"/>
</svg>